<svg width="32" height="32" viewBox="0 0 32 32" fill="none" xmlns="http://www.w3.org/2000/svg">
<path d="M31.7899 9.29937C31.7899 6.48687 29.7211 4.22437 27.1649 4.22437C23.7024 4.0625 20.1711 4 16.5624 4H15.4374C11.8374 4 8.29989 4.0625 4.83739 4.225C2.28739 4.225 0.218642 6.5 0.218642 9.3125C0.0623918 11.5369 -0.00385821 13.7619 -0.000108214 15.9869C-0.00635821 18.2119 0.0644751 20.439 0.212392 22.6681C0.212392 25.4806 2.28114 27.7619 4.83114 27.7619C8.46864 27.9306 12.1999 28.0056 15.9936 27.9994C19.7936 28.0119 23.5145 27.9327 27.1561 27.7619C29.7124 27.7619 31.7811 25.4806 31.7811 22.6681C31.9311 20.4369 31.9999 18.2119 31.9936 15.9806C32.0078 13.7556 31.9399 11.5285 31.7899 9.29937ZM12.9374 22.1181V9.83687L21.9999 15.9744L12.9374 22.1181Z" fill="white" fill-opacity="0.92"/>
</svg>
